<svg width="900" height="640" viewBox="0 0 900 640" fill="none" xmlns="http://www.w3.org/2000/svg">
  <rect width="900" height="640" rx="40" fill="#F4F9FF"/>
  <rect x="122" y="92" width="656" height="456" rx="32" fill="white" stroke="#D7E6F6" stroke-width="8"/>
  <rect x="170" y="132" width="216" height="18" rx="9" fill="#D8E8FF"/>
  <rect x="170" y="168" width="164" height="12" rx="6" fill="#E9F1FF"/>
  <rect x="170" y="214" width="560" height="110" rx="24" fill="#F7FBFF"/>
  <rect x="198" y="246" width="112" height="14" rx="7" fill="#1F6FFF"/>
  <rect x="198" y="276" width="238" height="12" rx="6" fill="#C8DDFF"/>
  <rect x="198" y="302" width="216" height="12" rx="6" fill="#C8DDFF"/>
  <rect x="170" y="352" width="248" height="132" rx="24" fill="#14345E"/>
  <rect x="200" y="390" width="96" height="14" rx="7" fill="#80B6FF"/>
  <rect x="200" y="420" width="162" height="12" rx="6" fill="#D8E9FF"/>
  <rect x="446" y="352" width="284" height="132" rx="24" fill="#FFF4E8"/>
  <rect x="478" y="390" width="102" height="14" rx="7" fill="#FF9228"/>
  <rect x="478" y="420" width="178" height="12" rx="6" fill="#FFD8B5"/>
  <circle cx="724" cy="134" r="64" fill="#DCEBFF"/>
  <path d="M704 136L720 152L748 122" stroke="#1F6FFF" stroke-width="14" stroke-linecap="round" stroke-linejoin="round"/>
</svg>
